#!OML:ASF Y:\EmotionMaleHayes\Project 1\Capture day 1\Session 1\Male1.ASF
:FULLY-SPECIFIED
:DEGREES
178
root -30.8352 17.0606 -0.659471 1.0007 83.048 0.78946
lowerback 4.98511 1.91271 -5.76426
upperback 0.971804 2.25721 -0.454338
thorax -1.99493 1.16909 2.60842
lowerneck -20.0997 0.774094 3.10479
upperneck 24.8322 0.342839 -0.129442
head 11.4308 0.529123 -0.497413
rclavicle -4.72114e-015 -3.57812e-015
rhumerus -34.5491 8.00513 -92.5771
rradius 30.3716
rwrist 8.31929
rhand -8.48163 -30.3567
rfingers 7.12502
rthumb 17.4454 -59.5939
lclavicle -4.72114e-015 -3.57812e-015
lhumerus -29.38 -7.7469 91.0247
lradius 21.6713
lwrist -19.0636
lhand -12.1491 -26.7557
lfingers 7.12502
lthumb 13.9133 2.75884
rfemur 0.587144 0.178137 11.7353
rtibia 9.42228
rfoot -13.7798 1.62899
rtoes 9.38459
lfemur 7.19125 9.32206 -18.8231
ltibia 1.23271
lfoot -10.9127 2.88294
ltoes -0.726647
179
root -30.8534 17.0679 -0.667605 -2.08264 82.9538 -2.1455
lowerback 5.36097 1.94321 -5.41307
upperback 0.994058 2.29313 -0.431302
thorax -2.1728 1.18878 2.42148
lowerneck -20.1638 0.728732 3.04712
upperneck 24.779 0.261912 -0.0240036
head 11.4216 0.499082 -0.461575
rclavicle 2.01269e-014 -2.18663e-014
rhumerus -34.5099 7.8985 -92.6386
rradius 30.3938
rwrist 8.43088
rhand -8.22279 -30.616
rfingers 7.12502
rthumb 17.6945 -59.8309
lclavicle 2.01269e-014 -2.18663e-014
lhumerus -29.2815 -7.85305 90.9024
lradius 21.6465
lwrist -19.0675
lhand -12.234 -26.7163
lfingers 7.12502
lthumb 13.8315 2.80382
rfemur 0.443023 0.415449 12.2409
rtibia 9.84882
rfoot -14.0939 1.55367
rtoes 10.0191
lfemur 7.42784 8.81718 -18.5266
ltibia 0.965121
lfoot -10.9273 3.50778
ltoes -1.25065
180
root -30.8611 17.0675 -0.669752 -2.37893 82.8754 -2.5276
lowerback 5.34004 1.95184 -5.49506
upperback 0.961903 2.29968 -0.444956
thorax -2.19751 1.19365 2.45267
lowerneck -20.2625 0.68891 2.95796
upperneck 24.8423 0.21401 0.0350538
head 11.4638 0.477441 -0.432143
rclavicle -1.39149e-015 4.37326e-015
rhumerus -34.5712 7.99175 -92.7448
rradius 30.5675
rwrist 8.28903
rhand -8.15616 -31.1055
rfingers 7.12502
rthumb 17.7586 -60.3146
lclavicle -1.39149e-015 4.37326e-015
lhumerus -29.2877 -7.79722 90.7959
lradius 21.6909
lwrist -19.1762
lhand -12.1763 -26.4351
lfingers 7.12502
lthumb 13.8871 3.08121
rfemur 0.0690574 0.502049 12.3325
rtibia 10.2972
rfoot -14.3524 1.64758
rtoes 8.82787
lfemur 7.1378 10.0247 -18.129
ltibia 1.45927
lfoot -10.8524 2.43528
ltoes -1.5759
181
root -30.8618 17.0729 -0.675929 -0.820251 83.0375 -0.839704
lowerback 5.46149 1.87899 -5.75523
upperback 1.02019 2.18188 -0.563737
thorax -2.19993 1.13657 2.48197
lowerneck -20.4467 0.691987 2.98292
upperneck 25.0142 0.210248 0.0123564
head 11.5655 0.477998 -0.44483
rclavicle -1.14301e-015 -3.10104e-014
rhumerus -34.5954 8.06814 -92.8911
rradius 30.7637
rwrist 8.17069
rhand -8.01645 -31.7029
rfingers 7.12502
rthumb 17.893 -60.8998
lclavicle -1.14301e-015 -3.10104e-014
lhumerus -29.2923 -7.86285 90.6329
lradius 21.7568
lwrist -19.1701
lhand -11.8768 -26.3259
lfingers 7.12502
lthumb 14.1757 3.17048
rfemur 0.0834452 0.232595 11.9981
rtibia 10.6081
rfoot -14.5905 1.91143
rtoes 7.62837
lfemur 7.39887 9.01773 -18.6851
ltibia 1.0224
lfoot -10.9323 3.25352
ltoes -0.632051
182
root -30.8777 17.0656 -0.687141 0.966028 82.0602 0.806154
lowerback 5.3661 2.17773 -6.00863
upperback 0.976248 2.56742 -0.734065
thorax -2.22842 1.3319 2.41844
lowerneck -20.4282 0.676965 2.91455
upperneck 24.9064 0.168152 0.158059
head 11.5201 0.469104 -0.386388
rclavicle -6.55989e-015 -3.97569e-015
rhumerus -34.4842 8.02276 -92.9982
rradius 30.7569
rwrist 8.19649
rhand -7.89812 -31.6359
rfingers 7.12502
rthumb 18.0069 -60.8223
lclavicle -6.55989e-015 -3.97569e-015
lhumerus -29.1928 -7.89037 90.4307
lradius 21.7675
lwrist -19.1857
lhand -11.5877 -26.2564
lfingers 7.12502
lthumb 14.4543 3.22021
rfemur -0.876705 0.379108 11.6868
rtibia 11.5255
rfoot -14.672 2.66412
rtoes 8.08949
lfemur 7.28504 9.63899 -18.9683
ltibia 0.982227
lfoot -11.0959 3.52866
ltoes 0.597965
183
root -30.8834 17.0676 -0.692493 1.53795 82.0986 1.47698
lowerback 5.38342 2.18475 -6.14219
upperback 1.11018 2.5747 -0.833945
thorax -2.10095 1.33162 2.39167
lowerneck -20.3906 0.643394 2.90066
upperneck 24.6679 0.0953687 0.247401
head 11.421 0.440957 -0.363229
rclavicle -2.05245e-014 7.95139e-016
rhumerus -34.2385 7.90446 -93.0042
rradius 30.6776
rwrist 8.13237
rhand -7.97096 -31.1901
rfingers 7.12502
rthumb 17.9368 -60.383
lclavicle -2.05245e-014 7.95139e-016
lhumerus -28.9391 -7.68973 90.1924
lradius 21.7561
lwrist -19.4604
lhand -11.434 -26.1654
lfingers 7.12502
lthumb 14.6024 3.3005
rfemur -0.89333 0.524863 11.5855
rtibia 11.7391
rfoot -14.8064 2.36383
rtoes 8.30192
lfemur 7.28513 9.89586 -18.9886
ltibia 1.17223
lfoot -11.0707 3.20518
ltoes 0.689972
184
root -30.8948 17.0668 -0.693322 0.987097 82.1383 0.904953
lowerback 5.16162 2.18898 -6.17356
upperback 1.29925 2.60567 -0.871748
thorax -1.78333 1.33625 2.38068
lowerneck -20.5388 0.616381 3.06307
upperneck 24.6078 0.0212787 0.14292
head 11.4262 0.40672 -0.440671
rclavicle 1.00883e-014 4.77083e-015
rhumerus -33.909 7.86325 -93.0105
rradius 30.669
rwrist 7.91562
rhand -8.19453 -30.9923
rfingers 7.12502
rthumb 17.7217 -60.2047
lclavicle 1.00883e-014 4.77083e-015
lhumerus -28.4457 -7.91016 90.0672
lradius 21.4265
lwrist -19.3365
lhand -11.4054 -26.3317
lfingers 7.12502
lthumb 14.63 3.13229
rfemur -1.05812 0.535402 11.6887
rtibia 11.9516
rfoot -14.792 2.26018
rtoes 8.28089
lfemur 7.17467 9.89473 -18.886
ltibia 1.26556
lfoot -10.9937 3.20572
ltoes 0.60452
185
root -30.9028 17.069 -0.695568 -0.734226 82.3449 -0.75098
lowerback 5.32877 2.1265 -6.07054
upperback 1.29598 2.51583 -0.810655
thorax -1.87075 1.29328 2.38692
lowerneck -20.6564 0.584084 3.09375
upperneck 24.8358 -0.0109246 0.0541915
head 11.5352 0.388529 -0.483256
rclavicle -4.77083e-015 7.95139e-015
rhumerus -33.9944 7.96241 -93.0322
rradius 30.7247
rwrist 7.70278
rhand -8.44468 -31.0057
rfingers 7.12502
rthumb 17.4809 -60.2397
lclavicle -4.77083e-015 7.95139e-015
lhumerus -28.5926 -7.7767 89.969
lradius 21.5993
lwrist -19.4233
lhand -11.2494 -26.4022
lfingers 7.12502
lthumb 14.7803 3.05074
rfemur -0.955244 0.582873 11.9751
rtibia 12.0142
rfoot -14.7539 2.19239
rtoes 8.57937
lfemur 7.22676 9.77303 -18.5949
ltibia 1.26616
lfoot -10.9402 3.10412
ltoes 0.703322
186
root -30.9114 17.0725 -0.699528 -2.25784 82.693 -2.15522
lowerback 5.58028 1.98617 -6.00864
upperback 1.31611 2.31642 -0.714982
thorax -1.97464 1.19603 2.45858
lowerneck -20.753 0.602316 2.94855
upperneck 24.989 0.0598336 0.0638026
head 11.6133 0.410582 -0.443918
rclavicle -6.11263e-015 -1.43125e-014
rhumerus -34.1986 8.07263 -92.9526
rradius 31.0311
rwrist 7.66375
rhand -8.4622 -31.2321
rfingers 7.12502
rthumb 17.4641 -60.4676
lclavicle -6.11263e-015 -1.43125e-014
lhumerus -28.5935 -7.6462 89.9505
lradius 21.6369
lwrist -19.4239
lhand -11.3312 -26.2091
lfingers 7.12502
lthumb 14.7014 3.24961
rfemur -0.777854 0.739886 12.1993
rtibia 12.1078
rfoot -14.8757 1.92368
rtoes 8.97166
lfemur 7.3412 9.50306 -18.3782
ltibia 1.19774
lfoot -10.823 2.98226
ltoes 0.189257
187
root -30.9232 17.0709 -0.699072 -2.01461 82.399 -1.91511
lowerback 5.62894 2.07875 -6.16973
upperback 1.31042 2.42652 -0.725215
thorax -2.02333 1.25316 2.52708
lowerneck -20.728 0.591335 2.75
upperneck 25.0097 0.0739858 0.203836
head 11.6163 0.416931 -0.356394
rclavicle -2.09221e-014 -3.97569e-015
rhumerus -34.1989 8.22405 -92.9675
rradius 31.1346
rwrist 7.59622
rhand -8.35467 -31.5053
rfingers 7.12502
rthumb 17.5676 -60.7316
lclavicle -2.09221e-014 -3.97569e-015
lhumerus -28.4882 -7.76194 89.9449
lradius 21.6001
lwrist -19.3313
lhand -11.5225 -26.0364
lfingers 7.12502
lthumb 14.5171 3.4357
rfemur -1.15715 0.863782 12.1549
rtibia 12.5998
rfoot -15.0669 2.26566
rtoes 9.77894
lfemur 7.39938 9.59921 -18.4002
ltibia 1.04972
lfoot -10.7889 3.17018
ltoes -0.157685
188
root -30.9237 17.0757 -0.703286 -2.72757 82.6437 -2.4592
lowerback 5.82573 2.0272 -6.13895
upperback 1.35725 2.34802 -0.745011
thorax -2.07552 1.21498 2.49019
lowerneck -20.5667 0.523108 2.74432
upperneck 24.9058 0.000981129 0.149391
head 11.5436 0.374784 -0.387489
rclavicle 3.50855e-014 -1.74931e-014
rhumerus -34.1544 8.17272 -92.9806
rradius 31.1462
rwrist 7.6687
rhand -8.24583 -31.649
rfingers 7.12502
rthumb 17.6723 -60.8659
lclavicle 3.50855e-014 -1.74931e-014
lhumerus -28.4462 -8.01865 89.9639
lradius 21.5759
lwrist -19.0806
lhand -11.5611 -25.9109
lfingers 7.12502
lthumb 14.4799 3.56391
rfemur -0.952748 0.48721 12.112
rtibia 12.6935
rfoot -15.2386 2.48404
rtoes 9.34263
lfemur 7.58785 9.40877 -18.3363
ltibia 1.00374
lfoot -10.8002 3.10905
ltoes 0.21203
189
root -30.9243 17.0782 -0.704205 -3.30967 82.7979 -2.92169
lowerback 5.94541 2.02426 -6.14573
upperback 1.38963 2.33662 -0.785822
thorax -2.10625 1.21006 2.44938
lowerneck -20.3759 0.447414 2.88216
upperneck 24.7267 -0.110367 0.0213343
head 11.4362 0.317826 -0.475632
rclavicle -4.07509e-015 1.90833e-014
rhumerus -34.2004 8.12104 -93.0212
rradius 31.2054
rwrist 7.63104
rhand -8.2616 -31.2394
rfingers 7.12502
rthumb 17.6571 -60.4576
lclavicle -4.07509e-015 1.90833e-014
lhumerus -28.399 -8.20395 89.904
lradius 21.4773
lwrist -19.1748
lhand -11.6688 -25.6714
lfingers 7.12502
lthumb 14.3762 3.81081
rfemur -0.794074 0.297856 12.1149
rtibia 12.7463
rfoot -15.4775 2.36568
rtoes 8.94078
lfemur 7.68647 9.42452 -18.2282
ltibia 1.05043
lfoot -10.8118 2.94327
ltoes 0.820282
190
root -30.9288 17.0766 -0.70431 -2.1045 82.7731 -1.74732
lowerback 5.92102 2.06907 -6.37357
upperback 1.37435 2.38305 -0.859
thorax -2.1183 1.23532 2.49724
lowerneck -20.407 0.395915 2.75173
upperneck 24.7904 -0.193364 0.211753
head 11.4658 0.294713 -0.396388
rclavicle 1.27222e-014 1.59028e-015
rhumerus -34.3018 8.27502 -93.0519
rradius 31.2913
rwrist 7.42413
rhand -8.35007 -30.7924
rfingers 7.12502
rthumb 17.572 -60.0183
lclavicle 1.27222e-014 1.59028e-015
lhumerus -28.2704 -7.83329 89.7062
lradius 21.2911
lwrist -19.6794
lhand -11.5558 -25.8393
lfingers 7.12502
lthumb 14.4851 3.63508
rfemur -0.996397 0.154023 11.8673
rtibia 13.0065
rfoot -15.8531 2.21306
rtoes 9.76646
lfemur 7.58081 9.49225 -18.4135
ltibia 1.17118
lfoot -10.9155 2.92323
ltoes 0.659074
191
root -30.9339 17.081 -0.702994 -1.35438 82.8613 -0.932526
lowerback 6.01173 2.06335 -6.60529
upperback 1.40753 2.35658 -0.888507
thorax -2.13965 1.22394 2.59571
lowerneck -20.6361 0.380647 2.54808
upperneck 25.0024 -0.222993 0.455471
head 11.592 0.298253 -0.276316
rclavicle 8.24956e-015 1.35174e-014
rhumerus -34.2907 8.46326 -93.0744
rradius 31.3643
rwrist 7.22616
rhand -8.49669 -30.8385
rfingers 7.12502
rthumb 17.4309 -60.077
lclavicle 8.24956e-015 1.35174e-014
lhumerus -28.3349 -7.96765 89.6999
lradius 21.4611
lwrist -19.4816
lhand -11.417 -25.9697
lfingers 7.12502
lthumb 14.6188 3.49503
rfemur -1.00924 0.193557 11.7145
rtibia 13.134
rfoot -16.1079 1.70576
rtoes 9.8306
lfemur 7.62151 9.27856 -18.5717
ltibia 1.20196
lfoot -11.0632 2.9809
ltoes 0.683945
192
root -30.9372 17.0835 -0.697102 -2.01102 82.9847 -1.57137
lowerback 6.08229 2.06776 -6.65771
upperback 1.39015 2.35249 -0.910783
thorax -2.19776 1.22434 2.59941
lowerneck -20.6618 0.359414 2.54981
upperneck 25.0954 -0.277918 0.545058
head 11.6326 0.288311 -0.251726
rclavicle 1.09332e-015 1.59028e-014
rhumerus -34.3058 8.31788 -93.0958
rradius 31.3876
rwrist 7.26861
rhand -8.61001 -30.6948
rfingers 7.12502
rthumb 17.3218 -59.9429
lclavicle 1.09332e-015 1.59028e-014
lhumerus -28.4403 -8.1657 89.6159
lradius 21.5594
lwrist -19.3791
lhand -11.4412 -26.0929
lfingers 7.12502
lthumb 14.5954 3.37351
rfemur -0.982274 0.441916 11.8461
rtibia 13.1385
rfoot -16.2087 1.04712
rtoes 9.7085
lfemur 7.68202 8.95575 -18.4898
ltibia 1.06799
lfoot -11.1454 3.06701
ltoes 1.42712
